<svg id="레이어_1" data-name="레이어 1" xmlns="http://www.w3.org/2000/svg" viewBox="0 0 255.12 255.12"><defs><style>.cls-1{fill:#7e4c9b;}</style></defs><path class="cls-1" d="M215.72,237.45c0-7.61-.1-19.3-.34-33.63-.33-19.71-.6-22.51-.77-36.78-.21-18.06.18-16.87.17-45.88,0-29.45.18-29.66,0-41.12a272.17,272.17,0,0,1,.77-28.61c.31-4.17.07-7.63.08-10,0-1.48-.48-1.52-1.36-2.47a3.87,3.87,0,0,0-2.55-1.62c-1.93-.26-4.75-.82-8.18-1.07-5.14-.37-7.77-.47-15.24-.45-2.1,0-7-.36-8.76-.18-.1-1.27-.64-7.66-2.3-12a16.31,16.31,0,0,0-1.54-3.07,20.25,20.25,0,0,0-3.06-3.4A10.23,10.23,0,0,0,168.57,15a75.61,75.61,0,0,1-7.6-2.49c-3.39-1.28-3.18-1.67-5.1-2.25a13.17,13.17,0,0,0-8.42.1A25.56,25.56,0,0,0,141,13.54c-7.51,4.16-21.29,16.63-21.8,17.12-2.19,2.11-4.06,3.67-5.08,4.93l-12,0a4.5,4.5,0,0,1-1.36-1,3,3,0,0,1-.77-1.31,15.93,15.93,0,0,0-1-3.49c-1.14-2.31-4-5.26-6.38-6.13a9,9,0,0,0-2.38-.58,12.72,12.72,0,0,0-2.65-1.81,12.06,12.06,0,0,0-6.68-1.41A22.9,22.9,0,0,0,72.05,22a46,46,0,0,0-12.86,8.33c-2.13,1.92-5,4.72-8.12,7.52-2,.08-3.93-.05-5.88,0a7,7,0,0,0-3,.55,5.67,5.67,0,0,0-2.72,2.73,7.16,7.16,0,0,0-.85,3.32c.09,3.17-.28,7.93.39,13.68,1.29,11.2,1.86,20.28,2.33,26.25.88,11.2,1.43,22.91,2.13,35.58.81,14.68.59,32.7.42,46.91-.16,14.53-.34,27.93-1.53,45.89-.7,10.63-1.31,19.65-2.29,26.35.08,1.93-.41,2.31.58,3.3a11.43,11.43,0,0,0,2.22,1.7c7.32-.06,18.15.06,31.8,0,25.23-.13,28.19-1.44,50.53-1.65,11-.11,26.85.24,58.56.93,10.94.24,19.95.5,26.37.46a12,12,0,0,0,2.86-.24,2.79,2.79,0,0,0,1.6-1.22,4.87,4.87,0,0,0,1-2.54A10.76,10.76,0,0,0,215.72,237.45ZM87.35,30.29a2.21,2.21,0,0,1-.25.55,4.73,4.73,0,0,1-.76,2.09,5.51,5.51,0,0,1-2.22,1.74,11.07,11.07,0,0,1-3.53,1.14L62.69,36a6.06,6.06,0,0,1-1.6.89,5.73,5.73,0,0,1-1.4.34h-2.8a.9.9,0,0,1-.59-.09c-.09,0-.36-.19-.35-.39a.35.35,0,0,1,.14-.23c.31-.28.75-.67,1.29-1.13a44.23,44.23,0,0,1,20-9.71,48.44,48.44,0,0,1,7.24-1.23,10.21,10.21,0,0,1,1,0,1.1,1.1,0,0,1,.82,0c.06,0,.2.12.55.66a6.55,6.55,0,0,1,.37.62c0,1.29,0,2.57.07,3.85A2.45,2.45,0,0,1,87.35,30.29Zm76.18,4.78c-3.33.66-8.51.77-13,1-6.12.32-9.94.91-17.48.33a1.31,1.31,0,0,1,0-.6,1.27,1.27,0,0,1,.34-.54c.69-.68,1.67-1.64,2.86-2.78,2.23-2.13,5.23-5.13,8.76-8s5.75-5.1,10.05-7.77a11,11,0,0,1,2.47-1.1,5.25,5.25,0,0,1,2.4-.3,4.14,4.14,0,0,1,1.1.3,10.86,10.86,0,0,1,1.75,3.26A31.14,31.14,0,0,1,164,28.38,52.14,52.14,0,0,1,163.53,35.07Z"/></svg>