<svg id="레이어_1" data-name="레이어 1" xmlns="http://www.w3.org/2000/svg" viewBox="0 0 255.12 255.12"><defs><style>.cls-1{fill:#2fbceb;}</style></defs><path class="cls-1" d="M189.44,34.89a1.78,1.78,0,0,1,.33-.24,22.9,22.9,0,0,0,.61-2.69,25.32,25.32,0,0,0-.32-9.49c-.66-3-1.35-6.12-3.93-9.17A17,17,0,0,0,178,8.07H80.36a5.78,5.78,0,0,0-3,1.44A21.4,21.4,0,0,0,70.22,20a20.06,20.06,0,0,0-.79,5.18V51.82a7.86,7.86,0,0,1,1.27,3.85V84.6a9.5,9.5,0,0,1-.4,2.18,9,9,0,0,1-.74,1.76V229A20.07,20.07,0,0,0,70,232.6a18.64,18.64,0,0,0,2.38,5.94,13.89,13.89,0,0,0,3.71,4.16,13,13,0,0,0,4.31,2.08h99.8a12.68,12.68,0,0,0,3.12-1.48,13.07,13.07,0,0,0,3-2.68,14.1,14.1,0,0,0,1.91-3.1,20.62,20.62,0,0,0,1.81-7.66V95.45c-.09-.91-.21-1.87-.38-2.87-.13-.85-.29-1.66-.46-2.42V52.53c0-.09.09-.2.13-.31a3.74,3.74,0,0,0,.11-.46V47.34l-.25-.15v-12A1.69,1.69,0,0,1,189.44,34.89ZM99.11,47.54a9.85,9.85,0,0,1-6.56,8h-6A9.32,9.32,0,0,1,82,52.8a9.22,9.22,0,0,1-2.26-4.94V24.48a9.33,9.33,0,0,1,6.55-7.61h5.75a8.67,8.67,0,0,1,4.12,1.94,8.9,8.9,0,0,1,2.92,5.75Z"/></svg>