<svg id="레이어_1" data-name="레이어 1" xmlns="http://www.w3.org/2000/svg" viewBox="0 0 255.12 255.12"><defs><style>.cls-1{fill:#f4d62b;}</style></defs><path class="cls-1" d="M58,15c13,.63,23.51.6,30.85.44,5.89-.12,12-.38,20.8,0,7,.31,12.7.89,16.55,1.35a3.1,3.1,0,0,1,.89.73,3.45,3.45,0,0,1,.7,2,23.89,23.89,0,0,1,0,5.23c-.57,3.06-.63,6.21-1.24,9.27-.55,2.83-.48,4.09-.37,16.34.08,9.24.12,13.86.1,15.53,0,4-.51,11.38-1.45,26a87.61,87.61,0,0,0,.43,19.79,48.92,48.92,0,0,0,1.35,6.26,50.68,50.68,0,0,0,4.91,11.38c3.58,6.13,7.7,10.15,12.56,14.82,10.5,10.11,15.75,15.16,18.17,17.26,1.71,1.48,19.47,16.83,25.4,22a37,37,0,0,1,4.69,4.85,39.21,39.21,0,0,1,4.64,7.39,44.15,44.15,0,0,1,3,7.6,34.43,34.43,0,0,1,1.35,12.62,33.54,33.54,0,0,1-1.83,8.25,31.57,31.57,0,0,1-8.9,13.53,32,32,0,0,1-16.07,7.23,40.11,40.11,0,0,1-14.45-.16c-6.65-1.27-11.3-3.9-16.34-6.74a64.6,64.6,0,0,1-9.38-6.26c-1.19-1-4.1-3.4-11.11-11.54-3.81-4.42-4.54-5.54-8.73-10.62-3.07-3.7-7-8.42-11.65-13.48a177.23,177.23,0,0,0-16.23-15.74C79.2,174.09,75.49,171,70.92,168.5a47.33,47.33,0,0,1-9.12-6,42.74,42.74,0,0,1-5.23-5.29,40.72,40.72,0,0,1-4.69-7.17A42.41,42.41,0,0,1,48,138.2a39,39,0,0,1-.06-14.78c.28-1.41,1-3.72,2.54-8.35,1.94-6,2.37-6.53,3.5-10.57a78,78,0,0,0,2-9.22c.36-2.36.55-4.36.65-5.83a2.5,2.5,0,0,0,.59-.91,2.34,2.34,0,0,0,.16-.81c.12-2.46,0-3.68,0-4.8,0-5.93,0-11.51-.21-17.26-.66-16.82-.51-24.94-.65-27.44-.16-2.84-.58-9.94-.59-19.58V17.58A4.86,4.86,0,0,1,56.52,16a1.84,1.84,0,0,1,.75-.81A1.56,1.56,0,0,1,58,15Z"/></svg>